<svg width="81" height="24" viewBox="0 0 81 24" fill="none" xmlns="http://www.w3.org/2000/svg">
<path d="M19.08 23.235L4.44003 4.245V21.285L7.06503 21.87V22.845H3.41833e-05V21.87L2.64003 21.285V1.515L3.41833e-05 0.96V-5.96046e-07H7.47004L19.005 14.865V1.515L16.365 0.96V-5.96046e-07H23.445V0.96L20.775 1.515V23.235H19.08ZM32.7174 23.16C31.1374 23.16 29.7574 22.83 28.5774 22.17C27.3974 21.5 26.4774 20.57 25.8174 19.38C25.1674 18.18 24.8424 16.795 24.8424 15.225C24.8424 13.555 25.2024 12.09 25.9224 10.83C26.6524 9.57 27.6624 8.585 28.9524 7.875C30.2524 7.165 31.7574 6.81 33.4674 6.81C35.6374 6.81 37.2924 7.41 38.4324 8.61C39.5824 9.81 40.1874 11.575 40.2474 13.905L40.0224 14.085H27.5124V12.9L35.8224 12.6C35.8924 12.37 35.9274 11.99 35.9274 11.46C35.9274 9.26 34.9924 8.16 33.1224 8.16C31.8724 8.16 30.9074 8.685 30.2274 9.735C29.5574 10.775 29.2224 12.255 29.2224 14.175C29.2224 18.285 30.8174 20.34 34.0074 20.34C36.1674 20.34 37.8524 19.59 39.0624 18.09L39.7974 18.675C39.2674 20.095 38.3774 21.2 37.1274 21.99C35.8874 22.77 34.4174 23.16 32.7174 23.16ZM58.6011 23.16L53.4261 9.3C53.2461 8.83 53.0161 8.515 52.7361 8.355C52.4661 8.185 51.9711 8.075 51.2511 8.025V7.11H60.3111V8.025C59.2511 8.095 58.5911 8.23 58.3311 8.43C58.0711 8.62 58.0361 9.015 58.2261 9.615L60.9261 18.165H61.0461L63.8211 10.275C63.9111 10.035 63.9811 9.82 64.0311 9.63C64.0811 9.44 64.1061 9.27 64.1061 9.12C64.1061 8.81 63.9511 8.58 63.6411 8.43C63.3411 8.27 62.7861 8.135 61.9761 8.025V7.11H68.6811V8.025C67.8711 8.145 67.2611 8.29 66.8511 8.46C66.4511 8.62 66.1561 8.845 65.9661 9.135C65.7761 9.415 65.5861 9.805 65.3961 10.305L60.6711 23.16H58.6011ZM48.0261 23.16L42.746 9.3C42.566 8.83 42.336 8.515 42.056 8.355C41.786 8.185 41.261 8.075 40.481 8.025V7.11H49.7211V8.025C49.0111 8.065 48.4861 8.135 48.1461 8.235C47.8061 8.325 47.6061 8.475 47.5461 8.685C47.4961 8.895 47.5311 9.205 47.6511 9.615L50.336 18.165H50.4561L54.2061 9.045L55.6611 9.18L50.0211 23.16H48.0261ZM73.9013 23.16C73.1813 23.16 72.4063 23.1 71.5763 22.98C70.7563 22.86 70.0463 22.705 69.4463 22.515L69.2513 17.685H70.3613C70.4613 19.035 70.8113 20.065 71.4113 20.775C72.0113 21.485 72.8413 21.84 73.9013 21.84C74.7013 21.84 75.3413 21.63 75.8213 21.21C76.3113 20.78 76.5563 20.22 76.5563 19.53C76.5563 18.98 76.3713 18.495 76.0013 18.075C75.6313 17.645 75.0063 17.2 74.1263 16.74L72.7463 16.05C71.5363 15.42 70.6513 14.735 70.0913 13.995C69.5413 13.255 69.2663 12.365 69.2663 11.325C69.2663 9.855 69.7963 8.735 70.8563 7.965C71.9163 7.195 73.4663 6.81 75.5063 6.81C76.2463 6.81 76.9613 6.86 77.6513 6.96C78.3413 7.05 78.8913 7.175 79.3013 7.335V11.445H78.3113C78.0213 9.235 76.9813 8.13 75.1913 8.13C74.4813 8.13 73.9113 8.31 73.4813 8.67C73.0513 9.02 72.8363 9.49 72.8363 10.08C72.8363 10.6 73.0263 11.06 73.4063 11.46C73.7863 11.86 74.4413 12.285 75.3713 12.735L76.7813 13.44C77.9113 14.01 78.7363 14.67 79.2563 15.42C79.7863 16.16 80.0513 17.07 80.0513 18.15C80.0513 19.71 79.5063 20.935 78.4163 21.825C77.3363 22.715 75.8313 23.16 73.9013 23.16Z" fill="white"/>
</svg>
